<?xml version="1.0" encoding="UTF-8" standalone="no"?>
<svg width="233px" height="275px" viewBox="0 0 233 275" version="1.1" xmlns="http://www.w3.org/2000/svg" xmlns:xlink="http://www.w3.org/1999/xlink" xmlns:sketch="http://www.bohemiancoding.com/sketch/ns">
    <!-- Generator: Sketch 3.5.2 (25235) - http://www.bohemiancoding.com/sketch -->
    <title>Fill 9</title>
    <desc>Created with Sketch.</desc>
    <defs></defs>
    <g id="Page-1" stroke="none" stroke-width="1" fill="none" fill-rule="evenodd" sketch:type="MSPage">
        <path d="M44.044248,172.803403 C44.044248,172.803403 14.212248,184.736403 4.66524796,172.803403 C-4.87475204,160.872403 2.88024796,162.663403 4.66524796,158.487403 C4.66524796,158.487403 10.636248,128.863403 13.023248,125.182403 C15.406248,121.500403 27.336248,113.148403 27.336248,113.148403 C27.336248,113.148403 33.902248,8.15440302 71.482248,0.995403024 C71.482248,0.995403024 82.216248,11.135403 78.048248,22.471403 C78.048248,22.471403 100.713248,-5.56759698 109.662248,0.995403024 C118.610248,7.55740302 112.647248,27.243403 109.662248,37.385403 C106.679248,47.528403 80.492248,95.849403 57.195248,114.342403 C57.195248,114.342403 74.464248,133.430403 75.063248,139.398403 C75.658248,145.363403 111.358248,143.573403 114.393248,142.380403 C117.420248,141.187403 151.424248,127.675403 162.158248,134.132403 C172.899248,140.590403 210.482248,165.049403 205.705248,215.757403 C205.705248,215.757403 215.851248,195.474403 223.008248,204.422403 C230.169248,213.371403 239.716248,251.549403 223.008248,252.743403 C206.304248,253.936403 203.322248,252.743403 203.322248,252.743403 C203.322248,252.743403 209.286248,270.046403 199.746248,270.640403 C190.197248,271.236403 126.972248,276.010403 122.792248,273.623403 C118.610248,271.236403 124.578248,250.951403 136.508248,251.549403 C148.443248,252.148403 134.719248,242.601403 134.719248,242.601403 L116.147248,227.688403 C116.147248,227.688403 91.173248,241.411403 88.187248,249.761403 C85.205248,258.111403 85.800248,268.255403 79.833248,270.046403 C73.866248,271.835403 51.202248,274.218403 48.811248,269.448403 C46.428248,264.678403 52.395248,249.166403 60.150248,249.166403 C67.902248,249.166403 70.289248,238.426403 70.289248,234.250403 C70.289248,230.073403 44.044248,193.685403 44.044248,172.803403" id="Fill-9" fill="#972A37" sketch:type="MSShapeGroup" transform="translate(116.146330, 137.143541) scale(-1, 1) translate(-116.146330, -137.143541) "></path>
    </g>
</svg>